<svg height="512pt" viewBox="0 0 512.00003 512" width="512pt" xmlns="http://www.w3.org/2000/svg"><path d="m507.019531 214.835938c-6.167969-5.53125-15.648437-5.019532-21.183593 1.148437l-9.15625 10.199219c-11.5-38.769532-44.828126-68.238282-85.679688-74.105469v-16.078125c0-74.992188-60.558594-136-135-136s-135 61.007812-135 136v60c0 44.820312 22.097656 85.722656 57.835938 110.710938l-52.441407 20.976562-100.230469-111.703125c-5.53125-6.167969-15.015624-6.679687-21.179687-1.148437-6.167969 5.53125-6.683594 15.015624-1.148437 21.183593l92.894531 103.53125-56.300781 22.523438c-4.671876 1.867187-8.097657 5.953125-9.117188 10.878906-1.023438 4.925781.492188 10.039063 4.035156 13.609375l18.027344 18.175781-21.9375 88.660157c-1.105469 4.476562-.09375 9.214843 2.75 12.847656 2.84375 3.632812 7.199219 5.753906 11.8125 5.753906h420c4.613281 0 8.96875-2.121094 11.8125-5.753906 2.84375-3.632813 3.855469-8.371094 2.75-12.847656l-21.9375-88.660157 18.027344-18.175781c3.542968-3.570312 5.058594-8.683594 4.035156-13.609375s-4.445312-9.011719-9.117188-10.878906l-56.300781-22.523438 92.894531-103.53125c5.53125-6.167969 5.019532-15.652343-1.144531-21.183593zm-57.945312 24.238281c-27.792969-6.433594-49.714844-28.355469-56.148438-56.148438 27.789063 6.433594 49.714844 28.355469 56.148438 56.148438zm-298.074219-43.074219v-45h210v45c0 3.597656-.183594 7.148438-.539062 10.652344l-100.824219-25.207032c-2.386719-.59375-4.886719-.59375-7.273438 0l-100.828125 25.207032c-.351562-3.503906-.535156-7.054688-.535156-10.652344zm105-166c52.855469 0 96.703125 39.628906 103.945312 91h-207.890624c7.242187-51.371094 51.089843-91 103.945312-91zm-97.175781 205.757812 97.175781-24.296874 97.175781 24.296874c-15.703125 38.238282-53.34375 65.242188-97.175781 65.242188-43.835938 0-81.472656-27.003906-97.175781-65.242188zm97.175781 95.242188c13.40625 0 26.355469-1.972656 38.585938-5.628906l-38.457032 77.347656-38.664062-77.332031c12.214844 3.644531 25.148437 5.613281 38.535156 5.613281zm-67.246094 4.054688 50.652344 101.296874-22.699219 45.648438h-44.457031c-5.714844-5.777344-99.539062-100.367188-99.652344-100.484375 11.445313-4.578125 102.367188-40.945313 116.15625-46.460937zm-110.644531 94.625 51.886719 52.320312h-64.832032zm368.726563 52.320312h-64.835938l51.890625-52.320312zm-107.085938 0h-89.539062l73.0625-146.9375c13.726562 5.492188 104.824218 41.929688 116.128906 46.453125-.121094.121094-81.617188 82.25-99.652344 100.484375zm-6.585938-175.289062c24.992188-17.476563 43.824219-43.183594 52.519532-73.160157 13.796875 16.378907 32.5 28.5 53.824218 34.0625l-53.898437 60.074219zm0 0"/></svg>